<svg width="16" height="16" viewBox="0 0 16 16" fill="none" xmlns="http://www.w3.org/2000/svg">
<path d="M11.3333 1.5H4.66666C3.05466 1.5 2.16666 2.388 2.16666 4V12C2.16666 13.612 3.05466 14.5 4.66666 14.5H11.3333C12.9453 14.5 13.8333 13.612 13.8333 12V4C13.8333 2.388 12.9453 1.5 11.3333 1.5ZM12.8333 12C12.8333 13.0513 12.3847 13.5 11.3333 13.5H4.66666C3.61532 13.5 3.16666 13.0513 3.16666 12V4C3.16666 2.94867 3.61532 2.5 4.66666 2.5H11.3333C12.3847 2.5 12.8333 2.94867 12.8333 4V12ZM11.5 5.33333C11.5 5.60933 11.276 5.83333 11 5.83333H8.33332C8.05732 5.83333 7.83332 5.60933 7.83332 5.33333C7.83332 5.05733 8.05732 4.83333 8.33332 4.83333H11C11.276 4.83333 11.5 5.05733 11.5 5.33333ZM11.5 8C11.5 8.276 11.276 8.5 11 8.5H8.33332C8.05732 8.5 7.83332 8.276 7.83332 8C7.83332 7.724 8.05732 7.5 8.33332 7.5H11C11.276 7.5 11.5 7.724 11.5 8ZM6.68668 4.53532C6.88201 4.73065 6.88201 5.04734 6.68668 5.24268L5.798 6.13135C5.70067 6.22868 5.57265 6.278 5.44465 6.278C5.31732 6.278 5.18863 6.22933 5.0913 6.132L4.64664 5.68734C4.4513 5.492 4.4513 5.17531 4.64664 4.97998C4.8413 4.78531 5.15799 4.78465 5.35399 4.97998L5.4453 5.07133L5.98062 4.53601C6.17529 4.34001 6.49134 4.33999 6.68668 4.53532ZM6.68668 7.20199C6.88201 7.39732 6.88201 7.71401 6.68668 7.90934L5.798 8.79801C5.70067 8.89535 5.57265 8.94466 5.44465 8.94466C5.31732 8.94466 5.18863 8.896 5.0913 8.79867L4.64664 8.354C4.4513 8.15867 4.4513 7.84198 4.64664 7.64665C4.8413 7.45198 5.15799 7.45131 5.35399 7.64665L5.4453 7.738L5.98062 7.20268C6.17529 7.00668 6.49134 7.00665 6.68668 7.20199ZM11.5 10.6667C11.5 10.9427 11.276 11.1667 11 11.1667H8.33332C8.05732 11.1667 7.83332 10.9427 7.83332 10.6667C7.83332 10.3907 8.05732 10.1667 8.33332 10.1667H11C11.276 10.1667 11.5 10.3907 11.5 10.6667ZM6.68668 9.86865C6.88201 10.064 6.88201 10.3807 6.68668 10.576L5.798 11.4647C5.70067 11.562 5.57265 11.6113 5.44465 11.6113C5.31732 11.6113 5.18863 11.5627 5.0913 11.4653L4.64664 11.0207C4.4513 10.8253 4.4513 10.5086 4.64664 10.3133C4.8413 10.1186 5.15799 10.118 5.35399 10.3133L5.4453 10.4047L5.98062 9.86934C6.17529 9.67334 6.49134 9.67332 6.68668 9.86865Z" fill="#828282"/>
</svg>
